Coordinates
version=1
nRows=27
nColumns=38
inDegrees=no

Units are S.I. units (second, meters, Newtons, ...)
If the header above contains a line with 'inDegrees', this indicates whether rotational values are in degrees (yes) or radians (no).

endheader
time	pelvis_tilt	pelvis_list	pelvis_rotation	pelvis_tx	pelvis_ty	pelvis_tz	hip_flexion_r	hip_adduction_r	hip_rotation_r	knee_angle_r	ankle_angle_r	subtalar_angle_r	mtp_angle_r	hip_flexion_l	hip_adduction_l	hip_rotation_l	knee_angle_l	ankle_angle_l	subtalar_angle_l	mtp_angle_l	lumbar_extension	lumbar_bending	lumbar_rotation	arm_flex_r	arm_add_r	arm_rot_r	elbow_flex_r	pro_sup_r	wrist_flex_r	wrist_dev_r	arm_flex_l	arm_add_l	arm_rot_l	elbow_flex_l	pro_sup_l	wrist_flex_l	wrist_dev_l
1.59	-1.87874	1.50126	0.770503	0.722662	1.41999	0.925595	0.423079	-0.144257	-0.363794	0.333477	-0.0174967	0	0	-0.15472	-0.208568	0.155705	0.620988	0.0387789	0	0	0.02627	0.10165	0.0373836	0.415877	-0.137601	0.055569	0.751497	1.56796	0	0	-0.143499	-0.0966199	-0.432024	0.242608	1.56994	0	0
1.6	-1.88279	1.49755	0.77827	0.721255	1.41042	0.926958	0.415309	-0.136285	-0.369638	0.33196	-0.0199896	0	0	-0.12408	-0.210698	0.163029	0.673556	0.0063825	0	0	0.0269103	0.105572	0.0352307	0.436988	-0.136516	0.0691991	0.749325	1.56737	0	0	-0.140985	-0.0970457	-0.426901	0.23944	1.5708	0	0
1.61	-1.87695	1.49409	0.77604	0.71994	1.40105	0.928299	0.406954	-0.127937	-0.375169	0.330515	-0.0217383	0	0	-0.092906	-0.21222	0.170162	0.726984	-0.0268415	0	0	0.0268822	0.110055	0.0345076	0.458031	-0.136576	0.0821407	0.747394	1.56683	0	0	-0.13697	-0.0972964	-0.420825	0.235044	1.5708	0	0
1.62	-1.87196	1.49079	0.773734	0.71857	1.39194	0.929545	0.399529	-0.119198	-0.377774	0.32994	-0.0224719	0	0	-0.0610099	-0.212523	0.177672	0.780234	-0.060525	0	0	0.0264459	0.114502	0.0362347	0.479053	-0.137552	0.0939408	0.745585	1.56567	0	0	-0.131717	-0.0973028	-0.414151	0.230729	1.5708	0	0
1.63	-1.85912	1.48836	0.763172	0.717282	1.38305	0.930788	0.391501	-0.1105	-0.37869	0.329793	-0.0220755	0	0	-0.0301596	-0.211344	0.185909	0.831922	-0.0941126	0	0	0.0244629	0.118989	0.0398015	0.500341	-0.139524	0.105092	0.743542	1.5641	0	0	-0.125974	-0.0966947	-0.406548	0.228147	1.5708	0	0
1.64	-1.84377	1.48659	0.74912	0.716	1.37435	0.931992	0.383335	-0.101943	-0.378493	0.32986	-0.0211877	0	0	-0.000409798	-0.208908	0.193554	0.88132	-0.127547	0	0	0.0215596	0.123256	0.0455956	0.521922	-0.14238	0.115985	0.740554	1.56301	0	0	-0.120082	-0.0957554	-0.397423	0.227379	1.5708	0	0
1.65	-1.82941	1.48521	0.735003	0.714733	1.36574	0.933132	0.37524	-0.0935483	-0.377595	0.329937	-0.0204398	0	0	0.0278146	-0.205318	0.200707	0.927821	-0.159109	0	0	0.0185321	0.127164	0.0534609	0.54362	-0.145953	0.127222	0.735959	1.56265	0	0	-0.114579	-0.0947839	-0.387931	0.228278	1.5708	0	0
1.66	-1.81217	1.48443	0.71792	0.713619	1.35727	0.934271	0.36641	-0.0857286	-0.377302	0.329652	-0.0205476	0	0	0.0545099	-0.200219	0.209063	0.973186	-0.180612	0	0	0.0148751	0.130806	0.0619659	0.565776	-0.149935	0.138502	0.729483	1.5629	0	0	-0.109867	-0.0933478	-0.377973	0.231265	1.5708	0	0
1.67	-1.79767	1.48442	0.70308	0.712563	1.34893	0.935398	0.357351	-0.078877	-0.377358	0.32927	-0.0216969	0	0	0.0803119	-0.193327	0.217147	1.01839	-0.185226	0	0	0.0107887	0.133551	0.0713553	0.588555	-0.153823	0.150041	0.720493	1.56364	0	0	-0.106039	-0.0917326	-0.366897	0.236298	1.5708	0	0
1.68	-1.78874	1.48522	0.692962	0.711442	1.34068	0.936471	0.348436	-0.0729081	-0.37703	0.328824	-0.0235514	0	0	0.105369	-0.185488	0.222883	1.06187	-0.174671	0	0	0.00638838	0.134874	0.0817419	0.612381	-0.157216	0.162775	0.707588	1.5646	0	0	-0.116924	-0.0936811	-0.29251	0.2726	1.49162	0	0
1.69	-1.78162	1.48683	0.684111	0.710354	1.3325	0.937607	0.339206	-0.0677077	-0.376432	0.328322	-0.0248924	0	0	0.128874	-0.177087	0.226338	1.10143	-0.155299	0	0	0.00136746	0.13518	0.0927975	0.635932	-0.159622	0.17306	0.693383	1.56758	0	0	-0.118048	-0.0940007	-0.264415	0.288198	1.45938	0	0
1.7	-1.77404	1.48936	0.674682	0.709369	1.32439	0.938823	0.329332	-0.0633863	-0.375625	0.327878	-0.024739	0	0	0.150311	-0.167661	0.229256	1.13629	-0.132486	0	0	-0.00410537	0.134636	0.103597	0.659789	-0.161167	0.184044	0.676456	1.56977	0	0	-0.117924	-0.0940008	-0.246104	0.300163	1.44091	0	0
1.71	-1.7656	1.49275	0.664221	0.708469	1.31636	0.940146	0.318872	-0.0596931	-0.373875	0.327666	-0.0219355	0	0	0.17026	-0.157139	0.231023	1.16643	-0.112178	0	0	-0.010135	0.13311	0.115051	0.68212	-0.162693	0.194086	0.66043	1.5708	0	0	-0.117264	-0.0940605	-0.230257	0.310625	1.42797	0	0
1.72	-1.75748	1.49652	0.653841	0.707605	1.30842	0.941548	0.308116	-0.0560204	-0.370749	0.327314	-0.0160409	0	0	0.189706	-0.146405	0.231081	1.1922	-0.0961067	0	0	-0.0164275	0.130926	0.127381	0.703296	-0.164508	0.203125	0.644765	1.5708	0	0	-0.116356	-0.0942393	-0.214521	0.320366	1.41725	0	0
1.73	-1.74672	1.50064	0.640789	0.706821	1.30061	0.943011	0.296537	-0.0523213	-0.366872	0.326058	-0.00859048	0	0	0.208015	-0.135184	0.231558	1.21361	-0.0829436	0	0	-0.0229784	0.128675	0.139536	0.724455	-0.166019	0.212527	0.627691	1.5708	0	0	-0.115581	-0.0942826	-0.199273	0.329177	1.40815	0	0
1.74	-1.72893	1.5049	0.62144	0.706188	1.2929	0.944533	0.283471	-0.0486524	-0.364775	0.322767	-0.00150822	0	0	0.225606	-0.123562	0.232403	1.23094	-0.0728643	0	0	-0.0297023	0.126664	0.151401	0.744337	-0.167916	0.221634	0.611156	1.5708	0	0	-0.11377	-0.0937413	-0.187737	0.33487	1.40376	0	0
1.75	-1.7398	1.51069	0.623081	0.704348	1.28482	0.94588	0.2686	-0.0558348	-0.381634	0.311461	0.00944733	0	0	0.24683	-0.125355	0.233932	1.242	-0.0544662	0	0	-0.0366926	0.121332	0.168889	0.763325	-0.167759	0.23047	0.596655	1.5708	0	0	-0.113024	-0.0941251	-0.176024	0.339147	1.39923	0	0
1.76	-1.74409	1.51417	0.626184	0.703931	1.27724	0.947233	0.256707	-0.0527536	-0.379752	0.306973	0.0145024	0	0	0.265787	-0.113926	0.234865	1.25186	-0.0477902	0	0	-0.0412423	0.118523	0.181485	0.779032	-0.170692	0.237561	0.583673	1.5708	0	0	-0.110797	-0.0940497	-0.165768	0.342444	1.39338	0	0
1.77	-1.72408	1.51588	0.613589	0.704751	1.27031	0.948758	0.245811	-0.0395856	-0.360213	0.308393	0.014397	0	0	0.280099	-0.0874582	0.234893	1.26035	-0.0525243	0	0	-0.0442427	0.118849	0.187983	0.792761	-0.17608	0.24388	0.569801	1.5708	0	0	-0.108731	-0.0938799	-0.150666	0.347151	1.38013	0	0
1.78	-1.73065	1.51986	0.619775	0.70441	1.26289	0.950113	0.232741	-0.0376628	-0.360171	0.302418	0.0194183	0	0	0.297113	-0.0749889	0.235542	1.26273	-0.0455421	0	0	-0.0486099	0.115524	0.199724	0.806564	-0.178904	0.25167	0.55687	1.5708	0	0	-0.108797	-0.0953037	-0.130706	0.35316	1.35758	0	0
1.79	-1.75368	1.52635	0.635103	0.702847	1.25491	0.951392	0.2163	-0.046253	-0.380352	0.28822	0.029655	0	0	0.316605	-0.0788561	0.236689	1.25905	-0.0252424	0	0	-0.0552918	0.108469	0.216169	0.82098	-0.178569	0.260306	0.543559	1.5708	0	0	-0.104026	-0.0941167	-0.143033	0.344783	1.4045	0	0
1.8	-1.76317	1.53122	0.644036	0.702516	1.24755	0.952747	0.20258	-0.0449895	-0.380198	0.281878	0.0349577	0	0	0.331363	-0.0677564	0.234667	1.25453	-0.0150968	0	0	-0.0604304	0.103854	0.228465	0.832276	-0.181574	0.266847	0.532377	1.5708	0	0	-0.101848	-0.0945154	-0.13425	0.34473	1.40264	0	0
1.81	-1.77277	1.5359	0.651264	0.701749	1.23973	0.954018	0.188336	-0.0437513	-0.394842	0.273504	0.0432309	0	0	0.344344	-0.0608035	0.226337	1.24637	0.00587081	0	0	-0.0654591	0.0979093	0.242672	0.842342	-0.183503	0.273346	0.52165	1.5708	0	0	-0.09969	-0.0965121	-0.127869	0.344297	1.3995	0	0
1.82	-1.80164	1.5411	0.678918	0.701461	1.23249	0.95525	0.174932	-0.0431049	-0.393669	0.267274	0.0474321	0	0	0.357274	-0.050553	0.222049	1.23535	0.0177022	0	0	-0.0707183	0.092479	0.255149	0.852088	-0.186142	0.279631	0.51144	1.5708	0	0	-0.0978807	-0.097096	-0.12204	0.344073	1.39619	0	0
1.83	-1.88884	1.54551	0.764823	0.701151	1.22529	0.956286	0.163648	-0.0433208	-0.39336	0.262467	0.0519096	0	0	0.37092	-0.040334	0.217428	1.22156	0.028834	0	0	-0.0744495	0.0867508	0.267536	0.859829	-0.188728	0.283223	0.50383	1.5708	0	0	-0.0950941	-0.0964062	-0.127646	0.340135	1.40981	0	0
1.84	-2.01164	1.55072	0.887654	0.7015	1.21878	0.957369	0.151809	-0.044082	-0.37714	0.258786	0.0520377	0	0	0.382978	-0.0259451	0.218727	1.20446	0.0293391	0	0	-0.0795946	0.0819455	0.278132	0.868161	-0.192224	0.288833	0.495319	1.5708	0	0	-0.0939469	-0.0947646	-0.123014	0.339105	1.41147	0	0
1.85	-2.1122	1.5552	0.985196	0.701012	1.21112	0.958296	0.137746	-0.0434346	-0.392978	0.250008	0.0592114	0	0	0.391867	-0.0213711	0.207328	1.18399	0.0516575	0	0	-0.0849875	0.0756217	0.291637	0.875514	-0.193412	0.296466	0.486459	1.5708	0	0	-0.0950229	-0.0983037	-0.107278	0.343	1.38951	0	0
